<?xml version="1.0" encoding="UTF-8" standalone="no"?>
<svg
   xmlns:dc="http://purl.org/dc/elements/1.1/"
   xmlns:cc="http://creativecommons.org/ns#"
   xmlns:rdf="http://www.w3.org/1999/02/22-rdf-syntax-ns#"
   xmlns:svg="http://www.w3.org/2000/svg"
   xmlns="http://www.w3.org/2000/svg"
   xmlns:sodipodi="http://sodipodi.sourceforge.net/DTD/sodipodi-0.dtd"
   xmlns:inkscape="http://www.inkscape.org/namespaces/inkscape"
   inkscape:version="1.0 (4035a4fb49, 2020-05-01)"
   sodipodi:docname="important.svg"
   id="svg18"
   version="1.1"
   viewBox="0 0 48 48">
  <metadata
     id="metadata24">
    <rdf:RDF>
      <cc:Work
         rdf:about="">
        <dc:format>image/svg+xml</dc:format>
        <dc:type
           rdf:resource="http://purl.org/dc/dcmitype/StillImage" />
      </cc:Work>
    </rdf:RDF>
  </metadata>
  <defs
     id="defs22" />
  <sodipodi:namedview
     inkscape:current-layer="svg18"
     inkscape:window-maximized="0"
     inkscape:window-y="0"
     inkscape:window-x="0"
     inkscape:cy="24"
     inkscape:cx="24"
     inkscape:zoom="21"
     showgrid="false"
     id="namedview20"
     inkscape:window-height="1413"
     inkscape:window-width="2331"
     inkscape:pageshadow="2"
     inkscape:pageopacity="0"
     guidetolerance="10"
     gridtolerance="10"
     objecttolerance="10"
     borderopacity="1"
     bordercolor="#666666"
     pagecolor="#ffffff" />
  <linearGradient
     gradientTransform="matrix(1.1983272,0,0,1.1983272,-4.7598536,-4.7453091)"
     gradientUnits="userSpaceOnUse"
     y2="38.142"
     y1="9.858"
     x2="38.142"
     x1="9.858"
     id="Fra82vO2YA534zQ6qwLCHa">
    <stop
       id="stop2"
       stop-color="#ffda1c"
       offset="0" />
    <stop
       id="stop4"
       stop-color="#feb705"
       offset="1" />
  </linearGradient>
  <path
     style="fill:url(#Fra82vO2YA534zQ6qwLCHa);stroke-width:1.19833"
     id="path7"
     d="M 47.966545,24.014545 C 47.966545,37.250069 37.235524,47.981089 24,47.981089 10.764476,47.981089 0.03345529,37.250069 0.03345529,24.014545 0.03345529,10.77902 10.764476,0.04799986 24,0.04799986 c 13.235524,0 23.966545,10.73102014 23.966545,23.96654514 z"
     fill="url(#Fra82vO2YA534zQ6qwLCHa)" />
  <radialGradient
     gradientTransform="matrix(1.1983272,0,0,1.1983272,-4.7598536,-4.7453091)"
     gradientUnits="userSpaceOnUse"
     r="22.363"
     cy="13.781"
     cx="18.189"
     id="Fra82vO2YA534zQ6qwLCHb">
    <stop
       id="stop9"
       stop-color="#4b4b4b"
       offset="0" />
    <stop
       id="stop11"
       stop-color="#393939"
       offset=".531" />
    <stop
       id="stop13"
       stop-color="#252525"
       offset="1" />
  </radialGradient>
  <path
     style="fill:url(#Fra82vO2YA534zQ6qwLCHb);stroke-width:1.19833"
     id="path16"
     d="m 24.016776,35.997817 c -0.877175,0 -1.600965,-0.266029 -2.171368,-0.798086 -0.570404,-0.532057 -0.855606,-1.175559 -0.855606,-1.932902 0,-0.789697 0.287598,-1.436794 0.863994,-1.94129 0.575197,-0.504496 1.29659,-0.756144 2.16298,-0.756144 0.877176,0 1.596173,0.255243 2.154593,0.764532 0.559619,0.510488 0.838829,1.15399 0.838829,1.932902 0,0.789698 -0.276813,1.441588 -0.830441,1.956868 -0.553627,0.515281 -1.27502,0.77412 -2.162981,0.77412 z M 26.67946,12.895266 26.103064,27.4849 c -0.01797,0.445778 -0.384663,0.798087 -0.83044,0.798087 h -2.611156 c -0.446976,0 -0.813664,-0.353507 -0.83044,-0.800484 L 21.285789,12.894068 c -0.01797,-0.470943 0.359498,-0.862796 0.83044,-0.862796 h 3.733988 c 0.470943,0 0.848416,0.391853 0.829243,0.863994 z"
     fill="url(#Fra82vO2YA534zQ6qwLCHb)" />
</svg>
